<?xml version="1.0" encoding="UTF-8"?>
<!DOCTYPE svg PUBLIC "-//W3C//DTD SVG 1.1//EN" "http://www.w3.org/Graphics/SVG/1.1/DTD/svg11.dtd">
<svg version="1.1" xmlns="http://www.w3.org/2000/svg" xmlns:xlink="http://www.w3.org/1999/xlink" x="0" y="0" width="512" height="140.642" viewBox="0, 0, 512, 140.642">
  <g id="Outlyer">
    <path d="M468.307,34.488 L488.055,34.488 L488.055,44.834 C493.353,38.075 502.642,32.764 512,32.764 L512,52.146 C510.624,51.801 508.697,51.663 506.564,51.663 C500.027,51.663 491.289,55.25 488.055,60.078 L488.055,109.948 L468.307,109.948 L468.307,34.488 z" fill="#FFFFFF" id="r"/>
    <path d="M417.664,32.626 C440.096,32.626 455.302,49.525 455.302,74.218 L455.302,78.564 L399.43,78.564 C400.669,88.082 408.306,96.084 421.036,96.084 C428.054,96.084 436.311,93.256 441.128,88.565 L449.866,101.395 C442.229,108.43 430.6,111.879 418.903,111.879 C395.99,111.879 378.719,96.429 378.719,72.149 C378.719,50.284 394.751,32.626 417.664,32.626 z M399.155,65.113 L436.174,65.113 C435.692,57.94 430.738,48.421 417.664,48.421 C405.348,48.421 400.049,57.595 399.155,65.113 z" fill="#FFFFFF" id="e"/>
    <path d="M310.943,122.984 C316.104,122.984 319.475,121.605 321.402,117.535 L324.223,111.12 L293.741,34.557 L314.934,34.557 L334.544,87.048 L354.155,34.557 L375.485,34.557 L340.187,122.364 C334.613,136.573 324.636,140.366 311.7,140.642 C309.361,140.642 304.406,140.159 301.861,139.539 L304.819,121.743 C306.471,122.502 309.085,122.984 310.943,122.984 z" fill="#FFFFFF" id="y"/>
    <path d="M265.048,5.725 L284.796,5.725 L284.796,109.948 L265.048,109.948 z" fill="#FFFFFF" id="l"/>
    <path d="M216.332,91.255 L216.332,51.87 L203.878,51.87 L203.878,34.488 L216.332,34.488 L216.332,13.864 L236.287,13.864 L236.287,34.488 L251.562,34.488 L251.562,51.87 L236.287,51.87 L236.287,85.875 C236.287,90.566 238.764,94.152 243.167,94.152 C246.126,94.152 248.947,93.049 250.048,91.945 L254.245,106.982 C251.287,109.672 245.988,111.81 237.731,111.81 C223.763,111.879 216.332,104.637 216.332,91.255 z" fill="#FFFFFF" id="t"/>
    <path d="M173.052,100.429 C167.891,106.223 158.878,111.81 146.561,111.81 C130.047,111.81 122.272,102.774 122.272,88.082 L122.272,34.488 L142.02,34.488 L142.02,80.288 C142.02,90.773 147.455,94.221 155.85,94.221 C163.488,94.221 169.543,90.014 172.983,85.599 L172.983,34.488 L192.731,34.488 L192.731,109.948 L172.983,109.948 L172.983,100.429 L173.052,100.429 z" fill="#FFFFFF" id="u"/>
    <path d="M101.079,29.453 C98.258,31.384 94.886,32.488 91.239,32.488 C81.606,32.488 73.831,24.693 73.831,15.037 C73.831,12.347 74.45,9.795 75.482,7.518 C69.014,4.828 61.927,3.311 54.496,3.311 C24.427,3.38 0,27.866 0,58.078 C0,88.289 24.427,112.776 54.565,112.776 C84.703,112.776 109.129,88.289 109.129,58.078 C109.198,47.594 106.239,37.799 101.079,29.453 z M54.427,91.462 C36.124,91.462 21.262,76.563 21.262,58.216 C21.262,39.868 36.124,24.969 54.427,24.969 C72.73,24.969 87.593,39.868 87.593,58.216 C87.593,76.563 72.73,91.462 54.427,91.462 z" fill="#FFFFFF" id="O"/>
    <path d="M106.239,15.037 C106.239,23.341 99.524,30.074 91.239,30.074 C82.955,30.074 76.239,23.341 76.239,15.037 C76.239,6.732 82.955,0 91.239,0 C99.524,0 106.239,6.732 106.239,15.037 z" fill="#FE752F" id="Oval"/>
  </g>
</svg>
